# xmcd
#
# Track frame offsets:
#	150
#	20955
#	45087
#	64621
#
# Disc length: 1115 seconds
#
# Revision: 2
# Processed by: cddbd v1.5.2PL0 Copyright (c) Steve Scherf et al.
# Submitted via: EZCDDA 4.3.2
#
DISCID=2a045904
DTITLE=Blinded Colony - Promotional Disc
DYEAR=1900
DGENRE=
TTITLE0=Aaron's Sons
TTITLE1=Swallow And Sleep
TTITLE2=In Here
TTITLE3=Need
EXTD=
EXTT0=
EXTT1=
EXTT2=
EXTT3=
PLAYORDER=
